<svg width="302" height="212" class="" viewBox="0 0 302 212" fill="none" xmlns="http://www.w3.org/2000/svg">
<path fill-rule="evenodd" clip-rule="evenodd" d="M205.321 110.514C178.533 112.931 159.235 113.492 142.004 110.359C137.929 109.618 135.499 105.516 136.514 101.5V101.5C137.529 97.4842 141.604 95.0781 145.686 95.779C160.501 98.3227 177.906 97.9264 203.973 95.5747C236.865 92.6072 270.078 99.2712 298.793 116.022L291.235 128.978C265.395 113.905 235.331 107.807 205.321 110.514Z" fill="black"/>
<path fill-rule="evenodd" clip-rule="evenodd" d="M235.022 87.6071C189.57 92.0928 163.798 92.09 140.986 87.4408C136.927 86.6136 134.499 82.5158 135.514 78.5V78.5C136.529 74.4842 140.602 72.0733 144.664 72.8812C165.054 76.9361 189.016 77.0746 233.549 72.6796C245.134 71.5363 256.886 73.438 267.508 78.4174C280.658 84.5812 290.727 95.8378 295.393 109.59L298.616 119.09L284.412 123.91L281.188 114.41C277.834 104.523 270.595 96.4305 261.142 91.9993C253.045 88.2039 244.011 86.72 235.022 87.6071Z" fill="black"/>
<path d="M124.351 100.531C126.789 110.627 123.515 121.78 114.916 131.84C106.325 141.892 92.7582 150.34 76.1397 154.354C59.5211 158.368 43.5939 157.043 31.362 152.021C19.1197 146.994 11.1155 138.565 8.67695 128.469C6.23842 118.373 9.51305 107.219 18.1116 97.1596C26.7029 87.1081 40.2696 78.6597 56.8881 74.6459C73.5067 70.6321 89.4339 71.957 101.666 76.9791C113.908 82.0054 121.912 90.4345 124.351 100.531Z" fill="white" stroke="black" stroke-width="15"/>
<path d="M8.01392 124.5H294.014V172C294.014 189.949 279.463 204.5 261.514 204.5H40.5139C22.5647 204.5 8.01392 189.949 8.01392 172V124.5Z" fill="#D8D8D8" stroke="black" stroke-width="15"/>
<path fill-rule="evenodd" clip-rule="evenodd" d="M287.732 2.44675C290.962 5.03982 291.479 9.76039 288.886 12.9905L281.352 22.3754C277.778 26.8268 278.741 33.3766 283.444 36.6116C298.897 50.8083 296.403 61.6503 290.488 71.8361C289.448 73.6264 287.663 74.8448 285.639 75.2828V75.2828C280.416 76.4134 275.644 72.0424 276.312 66.7405L276.391 66.1183C276.598 64.4734 277.389 62.9676 278.09 61.4652C280.328 56.6698 279.127 49.3774 274.943 46.5C263.055 38.3229 260.622 24.237 269.655 12.9851L277.189 3.60013C279.782 0.370071 284.502 -0.146316 287.732 2.44675V2.44675Z" fill="black"/>
<path fill-rule="evenodd" clip-rule="evenodd" d="M263.126 3.5476C265.388 5.64603 265.883 9.03623 264.315 11.6936L258.21 22.0446C257.688 22.9307 257.065 23.758 256.568 24.6589C254.053 29.2204 255.221 36.0568 259.5 39C275.136 53.3641 272.95 56.1373 265.769 67.6444C264.664 69.4151 262.725 70.5118 260.638 70.5118V70.5118C258.149 70.5118 255.918 68.96 255.044 66.6293V66.6293C254.127 64.1825 255.195 61.5907 256.461 59.3046C258.572 55.4924 254.875 52.6239 251.017 49.9705C239.129 41.7934 236.695 25.237 245.728 13.9851L253.543 4.25007C255.929 1.27913 260.334 0.956222 263.126 3.5476V3.5476Z" fill="black"/>
</svg>
